<svg xmlns="http://www.w3.org/2000/svg" width="300" height="400" viewBox="0 0 300 400">
  <defs>
    <linearGradient id="bookGrad" x1="0%" y1="0%" x2="100%" y2="100%">
      <stop offset="0%" style="stop-color:#4a5568;stop-opacity:1" />
      <stop offset="100%" style="stop-color:#2d3748;stop-opacity:1" />
    </linearGradient>
    <linearGradient id="spineGrad" x1="0%" y1="0%" x2="100%" y2="0%">
      <stop offset="0%" style="stop-color:#ed8936;stop-opacity:1" />
      <stop offset="100%" style="stop-color:#dd6b20;stop-opacity:1" />
    </linearGradient>
  </defs>
  <rect x="20" y="20" width="260" height="360" rx="5" fill="url(#bookGrad)"/>
  <rect x="20" y="20" width="20" height="360" rx="5" fill="url(#spineGrad)"/>
  <rect x="60" y="60" width="180" height="280" rx="3" fill="#1a202c" opacity="0.3"/>
  <g transform="translate(150, 200)" opacity="0.4">
    <path d="M-40,-50 L-40,50 Q-20,40 0,50 Q20,40 40,50 L40,-50 Q20,-40 0,-50 Q-20,-40 -40,-50 Z" fill="none" stroke="#fff" stroke-width="2"/>
    <line x1="-30" y1="-30" x2="30" y2="-30" stroke="#fff" stroke-width="2" opacity="0.5"/>
    <line x1="-30" y1="-10" x2="30" y2="-10" stroke="#fff" stroke-width="2" opacity="0.5"/>
    <line x1="-30" y1="10" x2="30" y2="10" stroke="#fff" stroke-width="2" opacity="0.5"/>
    <line x1="-30" y1="30" x2="30" y2="30" stroke="#fff" stroke-width="2" opacity="0.5"/>
  </g>
  <text x="150" y="100" text-anchor="middle" fill="#fff" font-family="Arial, sans-serif" font-size="16" font-weight="bold" opacity="0.8">BOOK</text>
  <text x="150" y="320" text-anchor="middle" fill="#fff" font-family="Arial, sans-serif" font-size="12" opacity="0.6">Digital Bookshelf</text>
</svg>
